<svg xmlns="http://www.w3.org/2000/svg" width="900" height="420"><text x="450.0" y="30" text-anchor="middle" font-size="20">con-producer-consumer-pipeline — mean wall time</text><line x1="60" y1="360" x2="840" y2="360" stroke="black"/><line x1="60" y1="60" x2="60" y2="360" stroke="black"/><text x="20" y="210.0" transform="rotate(-90 20,210.0)" text-anchor="middle" font-size="14">Milliseconds</text><rect x="80.0" y="340.88539616614867" width="90.0" height="19.114603833851362" fill="#7c3aed"/><text x="125.0" y="378" text-anchor="middle" font-size="12">typescript</text><text x="125.0" y="335.88539616614867" text-anchor="middle" font-size="11">45.27</text><rect x="210.0" y="333.82050481606655" width="90.0" height="26.179495183933476" fill="#7c3aed"/><text x="255.0" y="378" text-anchor="middle" font-size="12">go</text><text x="255.0" y="328.82050481606655" text-anchor="middle" font-size="11">62.0</text><rect x="340.0" y="308.51298384992754" width="90.0" height="51.48701615007246" fill="#7c3aed"/><text x="385.0" y="378" text-anchor="middle" font-size="12">python</text><text x="385.0" y="303.51298384992754" text-anchor="middle" font-size="11">121.93</text><rect x="470.0" y="284.64411477726355" width="90.0" height="75.35588522273648" fill="#7c3aed"/><text x="515.0" y="378" text-anchor="middle" font-size="12">rust</text><text x="515.0" y="279.64411477726355" text-anchor="middle" font-size="11">178.46</text><rect x="600.0" y="232.35859826600492" width="90.0" height="127.64140173399508" fill="#7c3aed"/><text x="645.0" y="378" text-anchor="middle" font-size="12">java</text><text x="645.0" y="227.35859826600492" text-anchor="middle" font-size="11">302.28</text><rect x="730.0" y="80.0" width="90.0" height="280.0" fill="#7c3aed"/><text x="775.0" y="378" text-anchor="middle" font-size="12">csharp</text><text x="775.0" y="75.0" text-anchor="middle" font-size="11">663.09</text></svg>