<svg xmlns="http://www.w3.org/2000/svg" width="900" height="420"><text x="450.0" y="30" text-anchor="middle" font-size="20">con-producer-consumer-pipeline — mean peak memory</text><line x1="60" y1="360" x2="840" y2="360" stroke="black"/><line x1="60" y1="60" x2="60" y2="360" stroke="black"/><text x="20" y="210.0" transform="rotate(-90 20,210.0)" text-anchor="middle" font-size="14">MB</text><rect x="80.0" y="292.88917570282035" width="90.0" height="67.11082429717963" fill="#059669"/><text x="125.0" y="378" text-anchor="middle" font-size="12">typescript</text><text x="125.0" y="287.88917570282035" text-anchor="middle" font-size="11">52.74</text><rect x="210.0" y="331.84628389125714" width="90.0" height="28.153716108742877" fill="#059669"/><text x="255.0" y="378" text-anchor="middle" font-size="12">go</text><text x="255.0" y="326.84628389125714" text-anchor="middle" font-size="11">22.12</text><rect x="340.0" y="344.2059243235382" width="90.0" height="15.794075676461766" fill="#059669"/><text x="385.0" y="378" text-anchor="middle" font-size="12">python</text><text x="385.0" y="339.2059243235382" text-anchor="middle" font-size="11">12.41</text><rect x="470.0" y="357.7337053835177" width="90.0" height="2.2662946164823077" fill="#059669"/><text x="515.0" y="378" text-anchor="middle" font-size="12">rust</text><text x="515.0" y="352.7337053835177" text-anchor="middle" font-size="11">1.78</text><rect x="600.0" y="229.11989529271685" width="90.0" height="130.88010470728315" fill="#059669"/><text x="645.0" y="378" text-anchor="middle" font-size="12">java</text><text x="645.0" y="224.11989529271685" text-anchor="middle" font-size="11">102.85</text><rect x="730.0" y="80.0" width="90.0" height="280.0" fill="#059669"/><text x="775.0" y="378" text-anchor="middle" font-size="12">csharp</text><text x="775.0" y="75.0" text-anchor="middle" font-size="11">220.04</text></svg>