<svg xmlns="http://www.w3.org/2000/svg" width="900" height="420"><text x="450.0" y="30" text-anchor="middle" font-size="20">cpu-prime-count @ input_size=300000 — derived CPU utilization</text><line x1="60" y1="360" x2="840" y2="360" stroke="black"/><line x1="60" y1="60" x2="60" y2="360" stroke="black"/><text x="20" y="210.0" transform="rotate(-90 20,210.0)" text-anchor="middle" font-size="14">CPU %</text><rect x="70.0" y="261.4986280166045" width="110.0" height="98.50137198339549" fill="#d97706"/><text x="125.0" y="378" text-anchor="middle" font-size="12">python</text><text x="125.0" y="256.4986280166045" text-anchor="middle" font-size="11">50.0</text><rect x="200.0" y="310.74931400830224" width="110.0" height="49.25068599169774" fill="#d97706"/><text x="255.0" y="378" text-anchor="middle" font-size="12">typescript</text><text x="255.0" y="305.74931400830224" text-anchor="middle" font-size="11">25.0</text><rect x="330.0" y="80.0" width="110.0" height="280.0" fill="#d97706"/><text x="385.0" y="378" text-anchor="middle" font-size="12">go</text><text x="385.0" y="75.0" text-anchor="middle" font-size="11">142.13</text><rect x="460.0" y="348.55808063040877" width="110.0" height="11.44191936959122" fill="#d97706"/><text x="515.0" y="378" text-anchor="middle" font-size="12">rust</text><text x="515.0" y="343.55808063040877" text-anchor="middle" font-size="11">5.81</text><rect x="590.0" y="226.54640118201647" width="110.0" height="133.45359881798353" fill="#d97706"/><text x="645.0" y="378" text-anchor="middle" font-size="12">java</text><text x="645.0" y="221.54640118201647" text-anchor="middle" font-size="11">67.74</text><rect x="720.0" y="243.4886371631605" width="110.0" height="116.51136283683952" fill="#d97706"/><text x="775.0" y="378" text-anchor="middle" font-size="12">csharp</text><text x="775.0" y="238.4886371631605" text-anchor="middle" font-size="11">59.14</text></svg>