<svg xmlns="http://www.w3.org/2000/svg" width="900" height="420"><text x="450.0" y="30" text-anchor="middle" font-size="20">cpu-prime-count @ input_size=300000 — mean peak memory</text><line x1="60" y1="360" x2="840" y2="360" stroke="black"/><line x1="60" y1="60" x2="60" y2="360" stroke="black"/><text x="20" y="210.0" transform="rotate(-90 20,210.0)" text-anchor="middle" font-size="14">MB</text><rect x="70.0" y="344.23935813544824" width="110.0" height="15.760641864551783" fill="#059669"/><text x="125.0" y="378" text-anchor="middle" font-size="12">python</text><text x="125.0" y="339.23935813544824" text-anchor="middle" font-size="11">12.17</text><rect x="200.0" y="298.5021618996971" width="110.0" height="61.49783810030289" fill="#059669"/><text x="255.0" y="378" text-anchor="middle" font-size="12">typescript</text><text x="255.0" y="293.5021618996971" text-anchor="middle" font-size="11">47.49</text><rect x="330.0" y="331.65492843765173" width="110.0" height="28.34507156234826" fill="#059669"/><text x="385.0" y="378" text-anchor="middle" font-size="12">go</text><text x="385.0" y="326.65492843765173" text-anchor="middle" font-size="11">21.89</text><rect x="460.0" y="357.7029757913478" width="110.0" height="2.297024208652223" fill="#059669"/><text x="515.0" y="378" text-anchor="middle" font-size="12">rust</text><text x="515.0" y="352.7029757913478" text-anchor="middle" font-size="11">1.77</text><rect x="590.0" y="253.40590533885177" width="110.0" height="106.59409466114822" fill="#059669"/><text x="645.0" y="378" text-anchor="middle" font-size="12">java</text><text x="645.0" y="248.40590533885177" text-anchor="middle" font-size="11">82.32</text><rect x="720.0" y="80.0" width="110.0" height="280.0" fill="#059669"/><text x="775.0" y="378" text-anchor="middle" font-size="12">csharp</text><text x="775.0" y="75.0" text-anchor="middle" font-size="11">216.25</text></svg>