<svg xmlns="http://www.w3.org/2000/svg" width="900" height="420"><text x="450.0" y="30" text-anchor="middle" font-size="20">cpu-prime-count @ input_size=300000 — mean wall time</text><line x1="60" y1="360" x2="840" y2="360" stroke="black"/><line x1="60" y1="60" x2="60" y2="360" stroke="black"/><text x="20" y="210.0" transform="rotate(-90 20,210.0)" text-anchor="middle" font-size="14">Milliseconds</text><rect x="70.0" y="345.49341693401647" width="110.0" height="14.506583065983508" fill="#4f46e5"/><text x="125.0" y="378" text-anchor="middle" font-size="12">python</text><text x="125.0" y="340.49341693401647" text-anchor="middle" font-size="11">31.86</text><rect x="200.0" y="342.9888436666141" width="110.0" height="17.01115633338591" fill="#4f46e5"/><text x="255.0" y="378" text-anchor="middle" font-size="12">typescript</text><text x="255.0" y="337.9888436666141" text-anchor="middle" font-size="11">37.36</text><rect x="330.0" y="329.44293131399525" width="110.0" height="30.557068686004744" fill="#4f46e5"/><text x="385.0" y="378" text-anchor="middle" font-size="12">go</text><text x="385.0" y="324.44293131399525" text-anchor="middle" font-size="11">67.11</text><rect x="460.0" y="286.467713951677" width="110.0" height="73.53228604832297" fill="#4f46e5"/><text x="515.0" y="378" text-anchor="middle" font-size="12">rust</text><text x="515.0" y="281.467713951677" text-anchor="middle" font-size="11">161.5</text><rect x="590.0" y="199.3194002474849" width="110.0" height="160.6805997525151" fill="#4f46e5"/><text x="645.0" y="378" text-anchor="middle" font-size="12">java</text><text x="645.0" y="194.3194002474849" text-anchor="middle" font-size="11">352.92</text><rect x="720.0" y="80.0" width="110.0" height="280.0" fill="#4f46e5"/><text x="775.0" y="378" text-anchor="middle" font-size="12">csharp</text><text x="775.0" y="75.0" text-anchor="middle" font-size="11">614.99</text></svg>