<svg xmlns="http://www.w3.org/2000/svg" width="900" height="420"><text x="450.0" y="30" text-anchor="middle" font-size="20">io-large-file-streaming — mean peak memory</text><line x1="60" y1="360" x2="840" y2="360" stroke="black"/><line x1="60" y1="60" x2="60" y2="360" stroke="black"/><text x="20" y="210.0" transform="rotate(-90 20,210.0)" text-anchor="middle" font-size="14">MB</text><rect x="80.0" y="331.5424715786215" width="90.0" height="28.457528421378523" fill="#059669"/><text x="125.0" y="378" text-anchor="middle" font-size="12">go</text><text x="125.0" y="326.5424715786215" text-anchor="middle" font-size="11">22.32</text><rect x="210.0" y="281.4336121215984" width="90.0" height="78.56638787840158" fill="#059669"/><text x="255.0" y="378" text-anchor="middle" font-size="12">typescript</text><text x="255.0" y="276.4336121215984" text-anchor="middle" font-size="11">61.63</text><rect x="340.0" y="345.26832421997716" width="90.0" height="14.731675780022854" fill="#059669"/><text x="385.0" y="378" text-anchor="middle" font-size="12">python</text><text x="385.0" y="340.26832421997716" text-anchor="middle" font-size="11">11.56</text><rect x="470.0" y="357.52304897537346" width="90.0" height="2.47695102462655" fill="#059669"/><text x="515.0" y="378" text-anchor="middle" font-size="12">rust</text><text x="515.0" y="352.52304897537346" text-anchor="middle" font-size="11">1.94</text><rect x="600.0" y="204.57291671409254" width="90.0" height="155.42708328590746" fill="#059669"/><text x="645.0" y="378" text-anchor="middle" font-size="12">java</text><text x="645.0" y="199.57291671409254" text-anchor="middle" font-size="11">121.92</text><rect x="730.0" y="80.0" width="90.0" height="280.0" fill="#059669"/><text x="775.0" y="378" text-anchor="middle" font-size="12">csharp</text><text x="775.0" y="75.0" text-anchor="middle" font-size="11">219.64</text></svg>