<svg xmlns="http://www.w3.org/2000/svg" width="900" height="420"><text x="450.0" y="30" text-anchor="middle" font-size="20">io-large-file-streaming — mean wall time</text><line x1="60" y1="360" x2="840" y2="360" stroke="black"/><line x1="60" y1="60" x2="60" y2="360" stroke="black"/><text x="20" y="210.0" transform="rotate(-90 20,210.0)" text-anchor="middle" font-size="14">Milliseconds</text><rect x="80.0" y="331.23223155214606" width="90.0" height="28.767768447853932" fill="#2563eb"/><text x="125.0" y="378" text-anchor="middle" font-size="12">go</text><text x="125.0" y="326.23223155214606" text-anchor="middle" font-size="11">77.88</text><rect x="210.0" y="323.19144080262265" width="90.0" height="36.80855919737736" fill="#2563eb"/><text x="255.0" y="378" text-anchor="middle" font-size="12">typescript</text><text x="255.0" y="318.19144080262265" text-anchor="middle" font-size="11">99.65</text><rect x="340.0" y="309.79787998918226" width="90.0" height="50.20212001081773" fill="#2563eb"/><text x="385.0" y="378" text-anchor="middle" font-size="12">python</text><text x="385.0" y="304.79787998918226" text-anchor="middle" font-size="11">135.91</text><rect x="470.0" y="236.43785413217415" width="90.0" height="123.56214586782585" fill="#2563eb"/><text x="515.0" y="378" text-anchor="middle" font-size="12">rust</text><text x="515.0" y="231.43785413217415" text-anchor="middle" font-size="11">334.51</text><rect x="600.0" y="205.58970468922118" width="90.0" height="154.41029531077882" fill="#2563eb"/><text x="645.0" y="378" text-anchor="middle" font-size="12">java</text><text x="645.0" y="200.58970468922118" text-anchor="middle" font-size="11">418.02</text><rect x="730.0" y="80.0" width="90.0" height="280.0" fill="#2563eb"/><text x="775.0" y="378" text-anchor="middle" font-size="12">csharp</text><text x="775.0" y="75.0" text-anchor="middle" font-size="11">758.01</text></svg>