<svg xmlns="http://www.w3.org/2000/svg" width="900" height="420"><text x="450.0" y="30" text-anchor="middle" font-size="20">mem-large-json-transform — mean wall time</text><line x1="60" y1="360" x2="840" y2="360" stroke="black"/><line x1="60" y1="60" x2="60" y2="360" stroke="black"/><text x="20" y="210.0" transform="rotate(-90 20,210.0)" text-anchor="middle" font-size="14">Milliseconds</text><rect x="80.0" y="341.56026330678117" width="90.0" height="18.43973669321886" fill="#2563eb"/><text x="125.0" y="378" text-anchor="middle" font-size="12">typescript</text><text x="125.0" y="336.56026330678117" text-anchor="middle" font-size="11">51.33</text><rect x="210.0" y="332.7493646331935" width="90.0" height="27.250635366806467" fill="#2563eb"/><text x="255.0" y="378" text-anchor="middle" font-size="12">python</text><text x="255.0" y="327.7493646331935" text-anchor="middle" font-size="11">75.86</text><rect x="340.0" y="326.93111097141525" width="90.0" height="33.06888902858478" fill="#2563eb"/><text x="385.0" y="378" text-anchor="middle" font-size="12">go</text><text x="385.0" y="321.93111097141525" text-anchor="middle" font-size="11">92.06</text><rect x="470.0" y="256.7298590967464" width="90.0" height="103.27014090325362" fill="#2563eb"/><text x="515.0" y="378" text-anchor="middle" font-size="12">rust</text><text x="515.0" y="251.7298590967464" text-anchor="middle" font-size="11">287.49</text><rect x="600.0" y="224.58739324490585" width="90.0" height="135.41260675509415" fill="#2563eb"/><text x="645.0" y="378" text-anchor="middle" font-size="12">java</text><text x="645.0" y="219.58739324490585" text-anchor="middle" font-size="11">376.96</text><rect x="730.0" y="80.0" width="90.0" height="280.0" fill="#2563eb"/><text x="775.0" y="378" text-anchor="middle" font-size="12">csharp</text><text x="775.0" y="75.0" text-anchor="middle" font-size="11">779.47</text></svg>