<svg xmlns="http://www.w3.org/2000/svg" width="900" height="420"><text x="450.0" y="30" text-anchor="middle" font-size="20">mem-large-json-transform — mean peak memory</text><line x1="60" y1="360" x2="840" y2="360" stroke="black"/><line x1="60" y1="60" x2="60" y2="360" stroke="black"/><text x="20" y="210.0" transform="rotate(-90 20,210.0)" text-anchor="middle" font-size="14">MB</text><rect x="80.0" y="256.65406247021065" width="90.0" height="103.34593752978932" fill="#059669"/><text x="125.0" y="378" text-anchor="middle" font-size="12">typescript</text><text x="125.0" y="251.65406247021065" text-anchor="middle" font-size="11">81.31</text><rect x="210.0" y="305.6375710972006" width="90.0" height="54.3624289027994" fill="#059669"/><text x="255.0" y="378" text-anchor="middle" font-size="12">python</text><text x="255.0" y="300.6375710972006" text-anchor="middle" font-size="11">42.77</text><rect x="340.0" y="329.23135585141875" width="90.0" height="30.76864414858123" fill="#059669"/><text x="385.0" y="378" text-anchor="middle" font-size="12">go</text><text x="385.0" y="324.23135585141875" text-anchor="middle" font-size="11">24.21</text><rect x="470.0" y="345.77992437482123" width="90.0" height="14.220075625178737" fill="#059669"/><text x="515.0" y="378" text-anchor="middle" font-size="12">rust</text><text x="515.0" y="340.77992437482123" text-anchor="middle" font-size="11">11.19</text><rect x="600.0" y="210.83537224746593" width="90.0" height="149.16462775253407" fill="#059669"/><text x="645.0" y="378" text-anchor="middle" font-size="12">java</text><text x="645.0" y="205.83537224746593" text-anchor="middle" font-size="11">117.36</text><rect x="730.0" y="80.0" width="90.0" height="280.0" fill="#059669"/><text x="775.0" y="378" text-anchor="middle" font-size="12">csharp</text><text x="775.0" y="75.0" text-anchor="middle" font-size="11">220.3</text></svg>