<svg xmlns="http://www.w3.org/2000/svg" width="900" height="420"><text x="450.0" y="30" text-anchor="middle" font-size="20">par-parallel-reduction — mean wall time</text><line x1="60" y1="360" x2="840" y2="360" stroke="black"/><line x1="60" y1="60" x2="60" y2="360" stroke="black"/><text x="20" y="210.0" transform="rotate(-90 20,210.0)" text-anchor="middle" font-size="14">Milliseconds</text><rect x="80.0" y="343.86255135778765" width="90.0" height="16.13744864221232" fill="#7c3aed"/><text x="125.0" y="378" text-anchor="middle" font-size="12">typescript</text><text x="125.0" y="338.86255135778765" text-anchor="middle" font-size="11">36.2</text><rect x="210.0" y="324.06748902801854" width="90.0" height="35.93251097198145" fill="#7c3aed"/><text x="255.0" y="378" text-anchor="middle" font-size="12">go</text><text x="255.0" y="319.06748902801854" text-anchor="middle" font-size="11">80.62</text><rect x="340.0" y="316.2855883003736" width="90.0" height="43.71441169962639" fill="#7c3aed"/><text x="385.0" y="378" text-anchor="middle" font-size="12">python</text><text x="385.0" y="311.2855883003736" text-anchor="middle" font-size="11">98.08</text><rect x="470.0" y="282.7015987175875" width="90.0" height="77.29840128241251" fill="#7c3aed"/><text x="515.0" y="378" text-anchor="middle" font-size="12">rust</text><text x="515.0" y="277.7015987175875" text-anchor="middle" font-size="11">173.42</text><rect x="600.0" y="219.6164542312768" width="90.0" height="140.3835457687232" fill="#7c3aed"/><text x="645.0" y="378" text-anchor="middle" font-size="12">java</text><text x="645.0" y="214.6164542312768" text-anchor="middle" font-size="11">314.96</text><rect x="730.0" y="80.0" width="90.0" height="280.0" fill="#7c3aed"/><text x="775.0" y="378" text-anchor="middle" font-size="12">csharp</text><text x="775.0" y="75.0" text-anchor="middle" font-size="11">628.19</text></svg>