<svg xmlns="http://www.w3.org/2000/svg" width="900" height="420"><text x="450.0" y="30" text-anchor="middle" font-size="20">par-parallel-reduction — mean peak memory</text><line x1="60" y1="360" x2="840" y2="360" stroke="black"/><line x1="60" y1="60" x2="60" y2="360" stroke="black"/><text x="20" y="210.0" transform="rotate(-90 20,210.0)" text-anchor="middle" font-size="14">MB</text><rect x="80.0" y="299.1740494903769" width="90.0" height="60.825950509623134" fill="#059669"/><text x="125.0" y="378" text-anchor="middle" font-size="12">typescript</text><text x="125.0" y="294.1740494903769" text-anchor="middle" font-size="11">46.93</text><rect x="210.0" y="331.26410605345256" width="90.0" height="28.735893946547428" fill="#059669"/><text x="255.0" y="378" text-anchor="middle" font-size="12">go</text><text x="255.0" y="326.26410605345256" text-anchor="middle" font-size="11">22.17</text><rect x="340.0" y="334.0855944677424" width="90.0" height="25.914405532257618" fill="#059669"/><text x="385.0" y="378" text-anchor="middle" font-size="12">python</text><text x="385.0" y="329.0855944677424" text-anchor="middle" font-size="11">20.0</text><rect x="470.0" y="357.6710084150304" width="90.0" height="2.3289915849695895" fill="#059669"/><text x="515.0" y="378" text-anchor="middle" font-size="12">rust</text><text x="515.0" y="352.6710084150304" text-anchor="middle" font-size="11">1.8</text><rect x="600.0" y="225.75832477018358" width="90.0" height="134.24167522981642" fill="#059669"/><text x="645.0" y="378" text-anchor="middle" font-size="12">java</text><text x="645.0" y="220.75832477018358" text-anchor="middle" font-size="11">103.58</text><rect x="730.0" y="80.0" width="90.0" height="280.0" fill="#059669"/><text x="775.0" y="378" text-anchor="middle" font-size="12">csharp</text><text x="775.0" y="75.0" text-anchor="middle" font-size="11">216.04</text></svg>